<?xml version="1.0" ?><!DOCTYPE svg  PUBLIC '-//W3C//DTD SVG 1.1//EN'  'http://www.w3.org/Graphics/SVG/1.1/DTD/svg11.dtd'><svg height="512px" style="shape-rendering:geometricPrecision; text-rendering:geometricPrecision; image-rendering:optimizeQuality; fill-rule:evenodd; clip-rule:evenodd" viewBox="0 0 78.4484 78.4484" width="512px" xml:space="preserve" xmlns="http://www.w3.org/2000/svg" xmlns:xlink="http://www.w3.org/1999/xlink"><defs><style type="text/css">
   <![CDATA[
    .fil9 {fill:none}
    .fil4 {fill:#121212}
    .fil7 {fill:#1E88E5}
    .fil0 {fill:#212121}
    .fil1 {fill:#383838}
    .fil2 {fill:#424242}
    .fil6 {fill:#43A047}
    .fil3 {fill:#595959}
    .fil8 {fill:#636363}
    .fil5 {fill:#E53935}
   ]]>
  </style></defs><g id="Layer_x0020_1"><g id="_134004400"><g><rect class="fil0" height="2.16331" id="_133630248" width="64.6395" x="6.90445" y="53.4327"/><polygon class="fil0" id="_133630128" points="58.3875,53.4327 71.5439,53.4327 71.5439,55.596 59.6365,55.596 "/><polygon class="fil1" id="_133629960" points="58.3875,53.4327 71.5439,53.4327 71.5439,55.596 59.6365,55.596 "/><path class="fil2" d="M8.04019 56.6694l62.368 0c0.624653,0 1.13573,-0.511089 1.13573,-1.13573l0 0 -64.6395 0 0 0c0,0.624641 0.511077,1.13573 1.13573,1.13573z" id="_133630176"/><path class="fil3" d="M60.2562 56.6694l10.152 0c0.624653,0 1.13571,-0.511065 1.13571,-1.13571l0 -2.4129e-005 -11.9434 0 0.655719 1.13573z" id="_133630152"/><g><rect class="fil4" height="0.335308" id="_133629504" width="5.85114" x="36.2986" y="54.3052"/><rect class="fil2" height="0.335308" id="_133629264" width="5.85114" x="36.2986" y="54.3467"/></g><g><rect class="fil5" height="0.420083" id="_133629408" width="0.420083" x="66.892" y="54.3043"/><rect class="fil6" height="0.420083" id="_133629144" width="0.420083" x="68.0111" y="54.3043"/><rect class="fil7" height="0.420083" id="_133629696" width="0.420083" x="69.1302" y="54.3043"/></g><path class="fil0" d="M8.89813 56.6694l0.995106 0 0 0c0,0.171473 -0.140286,0.311759 -0.311759,0.311759l-0.371587 0c-0.171485,0 -0.311759,-0.140286 -0.311759,-0.311759l0 0z" id="_133629336"/><path class="fil0" d="M68.5551 56.6694l0.995106 0 0 0c0,0.171473 -0.140274,0.311759 -0.311759,0.311759l-0.371587 0c-0.171485,0 -0.311759,-0.140286 -0.311759,-0.311759l0 0z" id="_133628280"/></g><path class="fil4" d="M16.4769 52.7681l45.4945 0c0.731038,0 1.32912,-0.598087 1.32912,-1.32911l0 -28.6427c0,-0.731026 -0.598509,-1.32911 -1.32912,-1.32911l-45.4945 0c-0.730616,0 -1.32912,0.598509 -1.32912,1.32911l0 28.6427c0,0.730616 0.598087,1.32911 1.32912,1.32911z" id="_133628592"/><g><rect class="fil2" height="26.9811" id="_133628544" width="43.8953" x="17.2765" y="23.6374"/><polygon class="fil3" id="_133628616" points="40.5754,23.6374 56.1529,50.6185 61.1718,50.6185 61.1718,23.6374 "/></g><g><circle class="fil2" id="_133628232" r="0.204289" transform="matrix(0.998664 1.01637 -1.01637 0.998664 39.2242 22.5668)"/><circle class="fil3" id="_133627608" r="0.204289" transform="matrix(0.772987 0.78669 -0.78669 0.772987 39.2242 22.5668)"/><path class="fil8" d="M39.3849 22.4089c0.0872024,0.0887466 0.0859477,0.23141 -0.00279897,0.318612 -0.0164319,0.0161423 -0.0347096,0.0292565 -0.0541577,0.0393424 -0.0627355,-0.0335032 -0.117086,-0.0939465 -0.14738,-0.172487 -0.0337565,-0.087504 -0.0303061,-0.178398 0.00248529,-0.24912 0.0711324,-0.0131262 0.147332,0.00816768 0.201852,0.0636524z" id="_133627752"/></g></g><rect class="fil9" height="78.4484" width="78.4484"/></g></svg>